<?xml version="1.0" encoding="UTF-8"?>
<svg id="Camada_1" xmlns="http://www.w3.org/2000/svg" version="1.1" viewBox="0 0 1920 1080">
  <!-- Generator: Adobe Illustrator 29.5.1, SVG Export Plug-In . SVG Version: 2.1.0 Build 141)  -->
  <defs>
    <style>
      .st0 {
        fill: #344692;
      }

      .st1 {
        fill: #728bc5;
      }

      .st2 {
        fill: #fff;
      }

      .st3 {
        fill: #697eb8;
      }

      .st4 {
        fill: #5064a6;
      }

      .st5 {
        fill: #465b97;
      }
    </style>
  </defs>
  <rect class="st0" x="-25" y="-24.5" width="1970" height="1129"/>
  <g>
    <rect class="st2" x="1084.6" y="539.35" width="3.89" height="26.51" transform="translate(2173.1 1105.21) rotate(180)"/>
    <rect class="st2" x="1110.1" y="543.68" width="3.89" height="22.18" transform="translate(2224.08 1109.54) rotate(180)"/>
    <path class="st2" d="M1095.78,543.59c6.17,0,11.19,5.02,11.19,11.19s-5.02,11.19-11.19,11.19-11.19-5.02-11.19-11.19,5.02-11.19,11.19-11.19ZM1095.78,561.99c3.98,0,7.21-3.23,7.21-7.21s-3.23-7.21-7.21-7.21-7.21,3.23-7.21,7.21,3.23,7.21,7.21,7.21Z"/>
    <path class="st2" d="M1128.99,543.59c6.17,0,11.19,5.02,11.19,11.19s-5.02,11.19-11.19,11.19-11.19-5.02-11.19-11.19,5.02-11.19,11.19-11.19ZM1128.99,561.99c3.98,0,7.21-3.23,7.21-7.21s-3.23-7.21-7.21-7.21-7.21,3.23-7.21,7.21,3.23,7.21,7.21,7.21Z"/>
  </g>
  <g>
    <polygon class="st2" points="741.94 590.94 741.94 489.3 761.66 489.3 761.66 571.23 798.3 571.23 798.3 590.94 741.94 590.94"/>
    <path class="st2" d="M846.41,591.44c-31.27,2-57.15-23.89-55.16-55.16,1.65-25.85,22.53-46.72,48.37-48.38,31.27-2,57.16,23.89,55.16,55.16-1.65,25.85-22.53,46.72-48.37,48.37ZM845.96,507.65c-20.03-1.79-36.74,14.93-34.96,34.96,1.37,15.36,13.73,27.72,29.09,29.09,20.03,1.79,36.74-14.93,34.96-34.96-1.37-15.36-13.73-27.72-29.09-29.09Z"/>
    <path class="st2" d="M926.99,591.55c-28.94,0-52.42-23.82-51.86-52.88.53-27.86,23.43-50.57,51.3-50.87,18.71-.2,35.56,9.46,45,25.75,1.13,1.95,1.98,3.62,2.69,5.26l.46,1.08h-22.22l-.23-.29c-6.06-7.57-15.45-12.09-25.13-12.09-17.73,0-32.16,14.43-32.16,32.16s14.42,32.15,32.16,32.15c9.74,0,19.19-4.59,25.27-12.28l2.01-2.54-25.75.31-.22-19.72,47.03-.56.05,5.07c.26,26.57-20.84,48.74-47.03,49.42-.45.01-.9.02-1.35.02Z"/>
    <g>
      <polygon class="st4" points="1062.73 571.33 1028.63 571.33 1021.39 562.1 1021.32 562.01 1016.68 556.1 1016.71 556.07 1021.34 561.99 1021.36 562.02 1021.52 561.83 1023.91 558.78 1027.55 554.18 1038.49 540.29 1034.68 535.41 1038.73 540.14 1041.93 544.29 1062.73 571.33"/>
      <polygon class="st3" points="1086.86 479.12 1038.67 540.1 1038.43 540.26 1034.62 535.37 1021.55 518.54 1052.78 479.04 1086.86 479.12"/>
      <polygon class="st4" points="1021.39 562.1 990.66 600.95 956.59 600.95 1001.12 544.42 1004.58 540.04 1004.84 539.71 1004.86 539.73 1004.59 540.06 1004.4 540.31 1016.71 556.07 1021.34 561.99 1021.36 562.02 1021.39 562.1"/>
      <polygon class="st4" points="1021.52 518.6 1004.86 539.73 1004.6 540.06 1004.58 540.04 956.56 479.05 990.66 479.05 1021.52 518.6"/>
      <path class="st2" d="M1022.82,536.11"/>
      <polygon class="st2" points="1021.57 518.61 1021.55 518.64 1021.52 518.6 1021.54 518.59 1021.57 518.61"/>
      <polygon class="st5" points="1016.71 556.07 1021.34 561.99 1021.32 562.01 1021.29 562.02 1001.12 544.42 1004.58 540.04 1004.84 539.71 1004.86 539.73 1004.59 540.06 1004.4 540.31 1016.71 556.07"/>
      <polygon class="st5" points="1041.93 544.29 1021.52 561.83 1023.91 558.78 1027.55 554.18 1038.49 540.29 1038.73 540.14 1041.93 544.29"/>
      <polygon class="st1" points="1004.41 540.31 1021.54 518.59 1038.73 540.14 1021.36 562.02 1004.41 540.31"/>
    </g>
  </g>
</svg>